<svg xmlns="http://www.w3.org/2000/svg" xmlns:xlink="http://www.w3.org/1999/xlink" width="1080" zoomAndPan="magnify" viewBox="0 0 810 809.999993" height="1080" preserveAspectRatio="xMidYMid meet" version="1.0"><defs><clipPath id="7aecbbf2c4"><path d="M 172.441406 172.441406 L 637.441406 172.441406 L 637.441406 637.441406 L 172.441406 637.441406 Z M 172.441406 172.441406 " clip-rule="nonzero"/></clipPath></defs><g clip-path="url(#7aecbbf2c4)"><path fill="#1f2d21" d="M 404.996094 172.441406 C 276.558594 172.441406 172.441406 276.558594 172.441406 404.996094 C 172.441406 533.429688 276.558594 637.546875 404.996094 637.546875 C 533.429688 637.546875 637.546875 533.429688 637.546875 404.996094 C 637.546875 276.558594 533.429688 172.441406 404.996094 172.441406 Z M 495.574219 359.390625 C 496.886719 360.890625 498.835938 361.582031 501.472656 361.421875 C 507.925781 361.039062 512.84375 359.023438 515.695312 355.585938 C 516.878906 354.164062 517.671875 352.527344 518.054688 350.742188 C 519.394531 353.917969 520.796875 355.71875 523.335938 355.71875 C 524.1875 355.71875 526.363281 355.71875 530.546875 351.148438 C 532.441406 355.882812 535.808594 361.132812 541.457031 361.4375 C 545.824219 361.679688 551.101562 361.625 554.582031 361.546875 L 554.582031 371.476562 C 544.917969 372.414062 534.300781 372.675781 531.9375 371.496094 C 524.976562 368.019531 517.382812 372.621094 517.367188 372.648438 C 513.929688 374.335938 505.609375 377.363281 501.890625 375.902344 C 501.199219 375.632812 500.8125 375.257812 500.558594 374.59375 C 499.851562 372.773438 499.257812 370.964844 498.699219 369.257812 C 496.738281 363.300781 494.351562 356.046875 487.671875 356.046875 C 486.835938 356.046875 485.929688 356.160156 484.953125 356.402344 C 483.128906 356.859375 479.574219 357.226562 475.816406 357.613281 C 473.015625 357.902344 470.367188 358.191406 467.902344 358.511719 C 469.113281 357.761719 470.375 356.828125 471.671875 355.671875 C 480.105469 348.179688 488.949219 343.160156 493.042969 343.425781 C 493.875 343.484375 494.199219 343.742188 494.414062 343.988281 C 495.640625 345.421875 495.296875 347.761719 494.675781 350.914062 C 494.113281 353.761719 493.480469 356.988281 495.574219 359.390625 Z M 496.9375 293.515625 C 499.492188 293.699219 501.941406 293.320312 504.042969 291.851562 C 506.828125 289.902344 508.332031 286.5625 508.640625 281.640625 C 509.269531 271.683594 510.660156 265.964844 511.695312 263.054688 C 512.492188 265.992188 513.296875 270.507812 513.746094 274.875 C 513.9375 276.765625 515.441406 278.277344 517.3125 278.136719 C 517.316406 278.136719 517.605469 278.160156 517.734375 278.320312 C 517.96875 278.601562 518.167969 279.464844 517.984375 280.960938 C 517.167969 287.519531 511.632812 299.636719 505.890625 299.636719 C 503.308594 299.636719 500.9375 297.339844 498.644531 295.121094 C 498.085938 294.578125 497.519531 294.03125 496.9375 293.515625 Z M 391.167969 187.460938 C 392.574219 187.371094 393.972656 187.28125 395.382812 187.222656 C 392.226562 189.089844 389.242188 191.003906 386.574219 192.917969 C 388.476562 190.824219 389.984375 189.042969 391.167969 187.460938 Z M 622.210938 387.027344 C 622.398438 389.304688 622.613281 391.578125 622.730469 393.875 C 622.3125 393.664062 621.867188 393.457031 621.359375 393.277344 C 619.417969 392.589844 616.859375 391.859375 614.097656 391.070312 C 610.386719 390.015625 603.507812 388.054688 600.132812 386.296875 C 604.441406 385.671875 613.429688 385.925781 622.210938 387.027344 Z M 584.898438 425.785156 C 604.402344 423.003906 615.59375 418.988281 618.160156 413.851562 C 618.738281 412.695312 620.074219 411.097656 621.363281 409.546875 C 621.898438 408.90625 622.425781 408.257812 622.945312 407.605469 C 621.535156 526.617188 524.332031 623.011719 404.996094 623.011719 C 287.941406 623.011719 192.171875 530.277344 187.214844 414.421875 C 190.222656 415.117188 193.582031 414.84375 197.066406 414.554688 C 202.316406 414.117188 208.257812 413.625 215.304688 415.710938 C 228.84375 419.71875 229.261719 421.652344 230.269531 426.324219 C 230.90625 429.277344 231.777344 433.316406 235.058594 438.5625 C 237.960938 443.203125 242.253906 446.128906 247.46875 447.015625 C 248.6875 447.226562 249.910156 447.316406 251.140625 447.316406 C 260.597656 447.316406 269.875 441.714844 272.679688 439.472656 C 275.117188 437.523438 274.976562 435.445312 274.679688 434.375 C 273.738281 431.007812 270.039062 430.523438 264.4375 429.792969 C 262.449219 429.539062 260.136719 429.234375 258.261719 428.761719 C 259.914062 427.203125 261.835938 425.125 261.835938 422.191406 C 261.835938 418.242188 258.953125 416.382812 256.640625 414.886719 C 254.742188 413.65625 252.585938 412.265625 250.808594 409.429688 C 249.519531 407.359375 249.746094 406.886719 250.707031 404.90625 C 251.710938 402.835938 253.230469 399.707031 252.15625 394.875 C 251.546875 392.152344 249.863281 391.097656 248.910156 390.710938 C 245.851562 389.460938 242.863281 391.398438 239.414062 393.648438 C 236.960938 395.25 233.25 397.644531 231.460938 397.109375 C 230.457031 396.796875 229.671875 395.203125 229.292969 394.28125 C 228.164062 391.546875 228.824219 390.050781 229.414062 389.164062 C 232.867188 384.007812 246.460938 381.867188 252.96875 381.867188 C 254.324219 381.867188 257.273438 384.324219 259.429688 386.117188 C 263.816406 389.769531 269.269531 394.308594 275.171875 392.09375 C 279.800781 390.359375 283.1875 383.199219 289.269531 369.632812 C 293.867188 359.378906 299.074219 347.75 304.378906 342.449219 C 311.113281 335.71875 318.054688 336.191406 324.777344 336.65625 C 328.03125 336.878906 331.113281 337.09375 333.996094 336.453125 C 336.429688 335.910156 339.402344 334.941406 340.800781 332.222656 C 342.460938 329 341.027344 325.636719 338.863281 320.550781 C 338.484375 319.667969 338.078125 318.714844 337.652344 317.679688 C 339.230469 317.878906 341.019531 317.792969 342.96875 317.210938 C 343.261719 317.125 343.429688 317.109375 343.449219 317.089844 C 343.972656 317.527344 344.761719 319.570312 345.238281 320.804688 C 346.972656 325.296875 349.820312 332.839844 359.613281 332.171875 C 363.375 331.921875 366.09375 330.625 367.6875 328.320312 C 370.628906 324.074219 368.855469 318.203125 366.613281 310.773438 C 365.175781 306.011719 363.542969 300.609375 362.988281 295.027344 C 362.316406 288.335938 360.257812 284.042969 356.691406 281.910156 C 351.953125 279.070312 346.640625 281.273438 343.460938 282.589844 C 343.449219 282.59375 343.4375 282.597656 343.429688 282.605469 C 342.882812 281.445312 342.214844 279.660156 341.6875 278.242188 C 339.796875 273.160156 337.660156 267.402344 333.65625 264.375 C 332.191406 263.261719 330.453125 262.851562 328.75 263.210938 C 324.84375 264.042969 322.371094 268.542969 319.503906 273.753906 C 318.015625 276.460938 314.917969 282.09375 313.425781 282.390625 C 306.332031 280.023438 302.117188 286.597656 299.960938 290.296875 C 298.875 288.875 298.066406 287.039062 297.578125 281.109375 C 297.242188 277.027344 311.742188 267.496094 319.535156 262.375 C 328.105469 256.742188 335.503906 251.878906 338.066406 247.609375 C 339.105469 245.878906 341.042969 242.652344 338.867188 240.074219 C 336.71875 237.539062 333.734375 238.71875 330.269531 240.074219 C 327.769531 241.054688 324.097656 242.488281 321.414062 242.246094 C 321.847656 240.824219 323.3125 238.464844 323.855469 237.59375 C 324.851562 235.992188 326.519531 233.308594 324.121094 231.160156 C 321.714844 228.996094 319.125 231.015625 317.882812 231.988281 C 312.03125 236.582031 297.140625 242.105469 292.214844 242.105469 C 291.328125 242.105469 290.761719 242.082031 290.402344 242.050781 C 290.238281 241.15625 290.121094 239.46875 290.007812 237.824219 C 289.929688 236.742188 289.847656 235.507812 289.730469 234.105469 C 289.46875 230.992188 288.050781 228.339844 285.625 226.4375 C 284.707031 225.71875 283.675781 225.152344 282.585938 224.6875 C 289.703125 219.835938 297.144531 215.4375 304.832031 211.445312 C 307.5625 214.132812 314.488281 218.128906 334.203125 222.277344 C 339.519531 223.394531 343.152344 225.074219 346.070312 226.421875 C 348.742188 227.652344 351.101562 228.589844 353.3125 228.589844 C 356.589844 228.589844 359.523438 226.535156 362.621094 220.347656 C 364.539062 216.515625 369.808594 210.652344 375.28125 204.855469 C 374.890625 206.007812 374.773438 207.121094 375.007812 208.175781 C 376.042969 212.832031 378.121094 216.914062 379.789062 220.195312 C 380.4375 221.464844 381.261719 223.085938 381.664062 224.144531 C 381.222656 224.445312 380.664062 224.792969 380.203125 225.082031 C 377.1875 226.964844 373.058594 229.542969 372.316406 234.21875 C 371.832031 237.261719 372.976562 240.457031 375.714844 243.71875 C 380.449219 249.359375 379.160156 253.453125 377.53125 258.632812 C 376.675781 261.351562 375.792969 264.160156 375.792969 267.269531 C 375.792969 268.792969 375.566406 271.265625 375.324219 273.882812 C 374.179688 286.367188 373.761719 295.460938 378.84375 298.835938 C 379.726562 299.421875 380.949219 299.933594 382.527344 299.933594 C 383.847656 299.933594 385.421875 299.574219 387.25 298.59375 C 393.15625 295.433594 394.917969 292.109375 396.953125 288.257812 C 399.464844 283.503906 402.90625 276.996094 416.695312 265.097656 C 441.183594 243.949219 459.789062 204.128906 460.640625 194.199219 C 495.046875 203.292969 526.15625 220.582031 551.710938 243.875 C 548.679688 249.234375 544.667969 254.082031 541.425781 253.496094 C 540.234375 253.28125 540.1875 253.269531 540.039062 250.085938 C 539.824219 245.4375 539.464844 237.660156 526.648438 235.144531 C 508.363281 231.546875 482.402344 239.832031 476.328125 255.894531 C 472.140625 266.96875 471.730469 277.804688 475.257812 284.171875 C 477.085938 287.46875 479.890625 289.574219 483.375 290.273438 C 484.84375 290.566406 486.433594 291.03125 488.117188 291.53125 C 487.085938 292.140625 486.164062 293.089844 485.367188 294.367188 C 478.023438 306.125 469.273438 315.289062 466.644531 315.328125 C 462.074219 315.328125 458.425781 319.375 456.882812 326.164062 C 456.269531 328.863281 455.890625 332.050781 456.6875 334.378906 C 456.644531 334.421875 456.605469 334.464844 456.5625 334.511719 C 453.765625 333.082031 449.339844 331.421875 445.773438 332.808594 C 443.542969 333.671875 441.957031 335.5625 441.320312 338.125 C 439.726562 344.488281 441.183594 353.199219 444.574219 357.539062 C 446.769531 360.355469 449.253906 360.945312 450.945312 360.945312 C 451.917969 360.945312 452.890625 361.054688 453.886719 361.160156 C 454.25 361.199219 454.625 361.238281 455.015625 361.273438 C 452.023438 362.410156 449.847656 363.902344 448.664062 365.96875 L 447.101562 368.746094 C 444.285156 373.769531 441.375 378.96875 438.214844 381.496094 L 437.550781 382.023438 C 433.199219 385.476562 426.625 390.695312 423.859375 402.691406 C 420.894531 415.523438 427.351562 443.148438 443.980469 447.210938 C 454.816406 449.863281 468.097656 448.710938 477.796875 447.863281 C 481.085938 447.582031 483.917969 447.335938 485.867188 447.316406 C 489.746094 447.3125 491.664062 449.308594 492.675781 460.496094 C 493.210938 466.34375 495.648438 469.992188 497.796875 473.214844 C 499.625 475.949219 501.070312 478.113281 501.398438 481.453125 C 501.757812 485.019531 501.464844 487.46875 501.089844 490.570312 C 500.613281 494.523438 500.027344 499.441406 500.523438 508.308594 C 500.722656 511.921875 500.632812 515.851562 500.539062 520.015625 C 500.234375 533.703125 499.886719 549.214844 511.433594 554.160156 C 513.152344 554.894531 514.613281 555.652344 515.917969 556.324219 C 519.25 558.039062 521.9375 559.121094 524.578125 559.121094 C 530.328125 559.117188 535.839844 553.984375 547.160156 539.070312 C 567.367188 512.445312 571.515625 499.527344 574.84375 485.410156 C 578.265625 470.875 588.722656 457.785156 596.992188 451.777344 C 605.203125 445.808594 611.0625 436.441406 609.527344 431.734375 C 608.917969 429.855469 607.265625 428.644531 605.316406 428.644531 C 604.925781 428.644531 604.132812 428.71875 603.03125 428.851562 C 597.242188 429.53125 579.628906 431.613281 574.609375 420.671875 C 574.226562 419.851562 573.839844 419.027344 573.445312 418.203125 C 577.042969 423.183594 580.773438 426.363281 584.898438 425.785156 Z M 584.898438 425.785156 " fill-opacity="1" fill-rule="nonzero"/></g><path fill="#1f2d21" d="M 383.941406 464.527344 C 374.46875 461.742188 364.765625 454.691406 356.203125 448.46875 C 352.0625 445.464844 348.152344 442.621094 344.644531 440.554688 C 334.8125 434.75 319.019531 431.996094 315.308594 431.410156 C 312.632812 429.722656 310.117188 427.859375 307.671875 426.050781 C 302.179688 421.988281 297.839844 418.78125 293.523438 418.78125 C 291.476562 418.78125 288.585938 419.527344 286.476562 423.082031 C 282.390625 429.945312 278.058594 436.746094 269.988281 444.46875 C 268.203125 446.179688 265.664062 447.835938 263.203125 449.4375 C 257.65625 453.058594 251.921875 456.796875 251.277344 462.980469 C 250.851562 467.089844 252.84375 471.285156 257.371094 475.8125 C 262.367188 480.804688 268.257812 483.96875 273.953125 487.027344 C 285.085938 493.007812 294.695312 498.175781 297.347656 515.628906 C 302.28125 548.1875 323.242188 579.417969 332.027344 591.328125 C 338.449219 600.042969 345.308594 604.84375 351.335938 604.84375 C 353.886719 604.84375 356.203125 603.949219 357.855469 602.324219 C 359.484375 600.722656 360.382812 598.53125 360.382812 596.148438 C 360.382812 594.390625 360.550781 592.554688 360.722656 590.609375 C 361.140625 585.992188 361.609375 580.761719 360.324219 573.707031 C 358.597656 564.179688 358.679688 559.636719 360.648438 556.347656 C 360.988281 555.777344 361.761719 555.550781 363.3125 555.214844 C 365.050781 554.832031 367.425781 554.3125 368.753906 552.046875 C 369.671875 550.476562 369.777344 548.589844 369.066406 546.273438 C 368.644531 544.882812 368.113281 543.574219 367.597656 542.304688 C 365.910156 538.171875 365.066406 536.09375 368.347656 532.265625 C 374.566406 525.027344 384.632812 508.640625 386.507812 496.460938 C 386.972656 493.441406 388.484375 490.105469 389.949219 486.878906 C 392.394531 481.484375 394.921875 475.90625 392.667969 470.980469 C 391.28125 467.957031 388.425781 465.84375 383.941406 464.527344 Z M 383.941406 464.527344 " fill-opacity="1" fill-rule="nonzero"/><path fill="#1f2d21" d="M 365.164062 229.15625 C 364.214844 227.457031 362.109375 226.800781 360.363281 227.671875 C 359.996094 227.855469 351.375 232.265625 351.375 241.382812 C 351.375 243.207031 348.742188 246.5 346.8125 248.90625 C 343.433594 253.132812 338.316406 259.519531 343.964844 264.222656 C 345.34375 265.371094 347.238281 265.980469 349.441406 265.980469 C 354.816406 265.980469 362.425781 262.285156 366.578125 255.226562 C 369.648438 250.011719 371.890625 241.257812 365.164062 229.15625 Z M 365.164062 229.15625 " fill-opacity="1" fill-rule="nonzero"/><path fill="#1f2d21" d="M 434.257812 292.574219 C 448.503906 285.453125 446.800781 262.996094 446.71875 262.042969 C 446.628906 260.984375 446.082031 260.015625 445.214844 259.394531 C 444.351562 258.777344 443.257812 258.570312 442.226562 258.820312 C 439.042969 259.605469 422.949219 263.941406 418.910156 272.007812 C 416.554688 276.722656 415.992188 284.628906 419.128906 289.699219 C 420.996094 292.730469 423.949219 294.398438 427.4375 294.398438 C 429.542969 294.398438 431.835938 293.785156 434.257812 292.574219 Z M 434.257812 292.574219 " fill-opacity="1" fill-rule="nonzero"/></svg>