<svg xmlns="http://www.w3.org/2000/svg" xmlns:xlink="http://www.w3.org/1999/xlink" width="1080" zoomAndPan="magnify" viewBox="0 0 810 809.999993" height="1080" preserveAspectRatio="xMidYMid meet" version="1.0"><defs><clipPath id="8718fee145"><path d="M 97.039062 305 L 271 305 L 271 590 L 97.039062 590 Z M 97.039062 305 " clip-rule="nonzero"/></clipPath></defs><path fill="#1f2d21" d="M 709.542969 536.28125 L 667.160156 536.28125 L 667.160156 242.464844 C 667.160156 229.863281 656.941406 219.652344 644.347656 219.652344 L 236.179688 219.652344 C 223.589844 219.652344 213.367188 229.863281 213.367188 242.464844 L 213.367188 288.671875 L 236.761719 288.671875 C 237.171875 288.671875 237.550781 288.785156 237.949219 288.808594 L 237.949219 259.0625 C 237.949219 252.753906 243.046875 247.65625 249.355469 247.65625 L 631.1875 247.65625 C 637.496094 247.65625 642.59375 252.753906 642.59375 259.0625 L 642.59375 536.28125 L 490.164062 536.28125 L 490.164062 545.882812 C 490.164062 552.191406 485.066406 557.289062 478.757812 557.289062 L 401.769531 557.289062 C 395.460938 557.289062 390.363281 552.191406 390.363281 545.882812 L 390.363281 536.28125 L 288.089844 536.28125 L 288.089844 555.773438 C 288.089844 568.957031 282.945312 580.875 274.730469 589.988281 L 662.015625 589.988281 C 713.34375 589.988281 709.542969 536.28125 709.542969 536.28125 Z M 709.542969 536.28125 " fill-opacity="1" fill-rule="nonzero"/><g clip-path="url(#8718fee145)"><path fill="#1f2d21" d="M 236.761719 305.777344 L 131.257812 305.777344 C 112.359375 305.777344 97.039062 321.109375 97.039062 339.996094 L 97.039062 555.773438 C 97.039062 574.660156 112.359375 589.988281 131.257812 589.988281 L 236.761719 589.988281 C 255.660156 589.988281 270.980469 574.660156 270.980469 555.773438 L 270.980469 339.996094 C 270.980469 321.109375 255.660156 305.777344 236.761719 305.777344 Z M 194.710938 577.558594 L 173.324219 577.558594 C 168.464844 577.558594 164.527344 573.609375 164.527344 568.761719 C 164.527344 563.914062 168.464844 559.980469 173.324219 559.980469 L 194.710938 559.980469 C 199.566406 559.980469 203.503906 563.902344 203.503906 568.761719 C 203.503906 573.621094 199.554688 577.558594 194.710938 577.558594 Z M 252.445312 535.5625 C 252.445312 541.84375 247.347656 546.964844 241.039062 546.964844 L 126.980469 546.964844 C 120.675781 546.964844 115.574219 541.84375 115.574219 535.5625 L 115.574219 353.066406 C 115.574219 346.761719 120.675781 341.660156 126.980469 341.660156 L 241.039062 341.660156 C 247.347656 341.660156 252.445312 346.761719 252.445312 353.066406 Z M 252.445312 535.5625 " fill-opacity="1" fill-rule="nonzero"/></g></svg>