<svg xmlns="http://www.w3.org/2000/svg" xmlns:xlink="http://www.w3.org/1999/xlink" width="1080" zoomAndPan="magnify" viewBox="0 0 810 809.999993" height="1080" preserveAspectRatio="xMidYMid meet" version="1.0"><defs><clipPath id="696d69df14"><path d="M 27.320312 229 L 782 229 L 782 686.324219 L 27.320312 686.324219 Z M 27.320312 229 " clip-rule="nonzero"/></clipPath></defs><path fill="#deb1b1" d="M 433.96875 220.769531 C 436.683594 220.769531 439.359375 219.492188 441.039062 217.101562 C 464.28125 184.023438 463.789062 161.3125 439.019531 123.644531 C 423.632812 100.242188 414.476562 76.804688 413.234375 57.671875 C 412.65625 48.753906 401.503906 45.050781 395.390625 51.535156 L 386.816406 60.550781 C 337.15625 112.816406 324.488281 164.539062 351.148438 206.191406 C 353.730469 210.210938 359.074219 211.378906 363.074219 208.808594 C 367.09375 206.234375 368.261719 200.898438 365.695312 196.882812 C 336.539062 151.339844 372.855469 100.695312 398.113281 73.734375 C 402.976562 96.625 414.695312 118.074219 424.59375 133.128906 C 445.464844 164.871094 445.9375 180.089844 426.910156 207.175781 C 422.871094 212.929688 427.058594 220.769531 433.96875 220.769531 Z M 433.96875 220.769531 " fill-opacity="1" fill-rule="nonzero"/><path fill="#deb1b1" d="M 476.820312 323.964844 C 476.765625 323.964844 476.710938 323.964844 476.636719 323.964844 C 471.882812 323.964844 468.019531 327.8125 468.003906 332.570312 C 467.988281 337.335938 471.84375 341.214844 476.609375 341.230469 C 477.757812 340.726562 527.03125 345.996094 537.289062 275.339844 C 539.003906 263.523438 543.132812 248.222656 560.042969 234.71875 C 566.816406 229.289062 563.628906 218.390625 555.042969 217.078125 C 551.789062 217.101562 494.851562 202.449219 461.609375 235.949219 C 445.261719 252.417969 439.28125 276.417969 443.648438 307.195312 C 437.878906 309.796875 431.824219 311.769531 425.550781 313.0625 C 427.34375 268.90625 415.574219 224.175781 405.570312 194.957031 C 408.363281 193.800781 408.546875 192.628906 420.0625 181.40625 C 423.4375 178.035156 423.4375 172.570312 420.0625 169.199219 C 416.691406 165.828125 411.230469 165.828125 407.855469 169.199219 L 399.289062 177.765625 C 395.699219 168.597656 393.09375 162.9375 392.703125 162.101562 C 390.699219 157.785156 385.566406 155.902344 381.234375 157.925781 C 376.914062 159.9375 375.039062 165.074219 377.058594 169.394531 C 377.417969 170.171875 413.128906 247.707031 408.085938 318.222656 C 407.125 331.699219 405.6875 344.683594 403.996094 357.238281 C 396.390625 341.433594 384.789062 325.75 366.925781 318.128906 C 362.519531 316.261719 357.460938 318.296875 355.59375 322.679688 C 353.722656 327.0625 355.761719 332.136719 360.148438 334.011719 C 369.324219 337.925781 376.484375 345.148438 382.03125 353.375 C 381.234375 353.292969 380.433594 353.1875 379.609375 353.347656 C 324.648438 363.484375 328.21875 318.902344 286.667969 286.199219 C 330.046875 271.6875 355.773438 270.070312 374.117188 298.558594 C 376.691406 302.566406 382.019531 303.710938 386.050781 301.136719 C 390.058594 298.558594 391.214844 293.214844 388.628906 289.207031 C 361.226562 246.671875 318.457031 257.007812 277.015625 271.246094 L 267.285156 274.578125 C 259.070312 277.40625 257.882812 288.71875 265.539062 292.835938 C 279.261719 300.234375 293.519531 314.972656 305.675781 334.359375 C 324.765625 364.804688 347.324219 376.902344 382.757812 370.320312 C 385.542969 369.804688 387.632812 367.9375 388.796875 365.578125 C 399.148438 387.535156 397.859375 397.925781 401.222656 402.402344 C 401.609375 424.464844 402.984375 440.265625 403.429688 456.820312 C 403.582031 463.027344 410.332031 466.445312 415.066406 464.683594 C 441.824219 454.71875 471.707031 468.382812 481.675781 495.132812 C 482.96875 498.605469 486.261719 500.753906 489.765625 500.753906 C 495.761719 500.753906 499.960938 494.753906 497.851562 489.109375 C 485.941406 457.136719 452.726562 439.265625 420.273438 445.445312 C 416.410156 359.871094 419.019531 390.289062 424.273438 330.945312 L 425.082031 330.8125 C 453.148438 326.191406 478.3125 310.039062 494.113281 286.503906 C 496.773438 282.546875 495.722656 277.183594 491.757812 274.527344 C 487.808594 271.867188 482.441406 272.917969 479.785156 276.882812 C 474.359375 284.957031 467.554688 291.917969 459.855469 297.664062 C 458.015625 275.988281 462.707031 259.347656 473.859375 248.113281 C 487.164062 234.71875 510.902344 228.796875 538.003906 232.027344 C 525.4375 246.609375 521.800781 261.835938 520.203125 272.863281 C 517.425781 291.964844 508.109375 323.964844 476.820312 323.964844 Z M 476.820312 323.964844 " fill-opacity="1" fill-rule="nonzero"/><path fill="#deb1b1" d="M 373.246094 458.261719 C 373.316406 453.492188 369.503906 449.570312 364.738281 449.503906 C 342.425781 449.53125 317.5625 467.3125 308.679688 488.742188 C 275.464844 481.132812 240.820312 499.089844 228.609375 531.890625 C 226.9375 536.355469 229.214844 541.324219 233.683594 542.988281 C 238.085938 544.640625 243.101562 542.429688 244.78125 537.914062 C 254.695312 511.296875 284.292969 497.722656 310.933594 507.34375 C 316.730469 509.957031 322.078125 505.816406 322.910156 501.125 C 325.910156 484.1875 347.214844 467.074219 364.492188 466.769531 C 369.542969 467.269531 373.1875 463.027344 373.246094 458.261719 Z M 373.246094 458.261719 " fill-opacity="1" fill-rule="nonzero"/><path fill="#deb1b1" d="M 514.148438 537.027344 C 537.8125 530.546875 561.984375 542.472656 569.289062 564.199219 C 570.503906 567.800781 573.863281 570.078125 577.472656 570.078125 C 583.371094 570.078125 587.53125 564.28125 585.65625 558.691406 C 575.421875 528.28125 541.976562 511.464844 509.574219 520.378906 C 504.976562 521.644531 502.273438 526.398438 503.539062 530.988281 C 504.808594 535.585938 509.5625 538.273438 514.148438 537.027344 Z M 514.148438 537.027344 " fill-opacity="1" fill-rule="nonzero"/><path fill="#deb1b1" d="M 345.210938 539.621094 C 349.761719 540.886719 354.550781 538.25 355.835938 533.613281 C 359.144531 521.710938 372.199219 515.148438 384.757812 518.652344 C 389.320312 519.914062 394.105469 517.242188 395.386719 512.644531 C 396.660156 508.054688 393.976562 503.292969 389.378906 502.019531 C 367.929688 496.0625 345.152344 507.578125 339.199219 528.996094 C 337.925781 533.585938 340.617188 538.347656 345.210938 539.621094 Z M 345.210938 539.621094 " fill-opacity="1" fill-rule="nonzero"/><g clip-path="url(#696d69df14)"><path fill="#deb1b1" d="M 772.742188 618.753906 L 697.636719 618.753906 L 697.636719 264.824219 C 697.636719 245.488281 681.960938 229.757812 662.691406 229.757812 L 607.972656 229.757812 C 603.207031 229.757812 599.339844 233.625 599.339844 238.390625 C 599.339844 243.15625 603.207031 247.019531 607.972656 247.019531 L 662.691406 247.019531 C 672.441406 247.019531 680.371094 255.007812 680.371094 264.824219 L 680.371094 618.753906 L 481.582031 618.753906 C 477.941406 618.753906 474.6875 621.042969 473.453125 624.476562 C 471.746094 629.253906 465.132812 634.453125 456.695312 634.453125 L 352.144531 634.453125 C 344.472656 634.453125 337.707031 630.34375 335.296875 624.226562 C 333.996094 620.921875 330.808594 618.753906 327.265625 618.753906 L 118.183594 618.753906 L 118.183594 264.824219 C 118.183594 255.007812 126.167969 247.019531 135.988281 247.019531 L 250.96875 247.019531 C 255.738281 247.019531 259.601562 243.15625 259.601562 238.390625 C 259.601562 233.625 255.738281 229.757812 250.96875 229.757812 L 135.988281 229.757812 C 116.648438 229.757812 100.917969 245.488281 100.917969 264.824219 L 100.917969 618.753906 L 36.101562 618.753906 C 31.335938 618.753906 27.46875 622.621094 27.46875 627.386719 L 27.46875 639.519531 C 27.46875 665.402344 49.804688 686.453125 77.253906 686.453125 L 731.710938 686.453125 C 759.097656 686.453125 781.375 665.402344 781.375 639.519531 L 781.375 627.386719 C 781.375 622.621094 777.511719 618.753906 772.742188 618.753906 Z M 764.113281 639.519531 C 764.113281 655.878906 749.578125 669.1875 731.710938 669.1875 L 77.253906 669.1875 C 59.324219 669.1875 44.734375 655.878906 44.734375 639.519531 L 44.734375 636.019531 L 322.046875 636.019531 C 328.269531 645.601562 339.671875 651.714844 352.144531 651.714844 L 456.695312 651.714844 C 469.613281 651.714844 480.972656 645.089844 486.863281 636.019531 L 764.113281 636.019531 Z M 764.113281 639.519531 " fill-opacity="1" fill-rule="nonzero"/></g></svg>