<svg xmlns="http://www.w3.org/2000/svg" xmlns:xlink="http://www.w3.org/1999/xlink" width="1080" zoomAndPan="magnify" viewBox="0 0 810 809.999993" height="1080" preserveAspectRatio="xMidYMid meet" version="1.0"><path fill="#b7d6bd" d="M 231.402344 624.90625 C 322.996094 512.121094 522.296875 280.597656 753.242188 122.957031 C 809.269531 80.425781 604.019531 75.199219 334.753906 336.191406 C 108.890625 555.085938 2.492188 634.632812 86.683594 688.339844 C 160.421875 735.226562 189.164062 676.875 231.402344 624.90625 Z M 231.402344 624.90625 " fill-opacity="1" fill-rule="evenodd"/><path fill="#b7d6bd" d="M 104.390625 295.839844 C 203.53125 368.269531 506.476562 566.121094 588.34375 679.195312 C 597.050781 690.664062 604.019531 674.988281 595.746094 638.84375 C 553.941406 456.234375 305.722656 245.46875 139.953125 166.359375 C 112.957031 153.441406 74.199219 199.164062 59.539062 231.824219 C 46.328125 261.4375 80.296875 278.273438 104.390625 295.839844 Z M 104.390625 295.839844 " fill-opacity="1" fill-rule="evenodd"/></svg>