<?xml version="1.0" standalone="no"?>
<!DOCTYPE svg PUBLIC "-//W3C//DTD SVG 20010904//EN"
 "http://www.w3.org/TR/2001/REC-SVG-20010904/DTD/svg10.dtd">
<svg version="1.0" xmlns="http://www.w3.org/2000/svg"
 width="1080.000000pt" height="1080.000000pt" viewBox="0 0 1080.000000 1080.000000"
 preserveAspectRatio="xMidYMid meet">

<g transform="translate(0.000000,1080.000000) scale(0.100000,-0.100000)"
fill="#000000" stroke="none">
<path d="M3175 8920 c-249 -29 -495 -102 -719 -214 -570 -286 -1014 -870
-1140 -1498 -98 -485 -23 -995 218 -1493 432 -893 1366 -1937 2666 -2981 430
-345 1041 -808 1120 -849 38 -20 123 -19 163 2 32 16 72 46 412 303 931 705
1498 1193 2094 1805 551 565 1002 1168 1261 1684 344 688 365 1413 59 2038
-211 432 -577 802 -992 1003 -575 278 -1220 278 -1792 0 -276 -134 -415 -248
-810 -662 -170 -178 -311 -324 -314 -325 -3 0 -127 127 -276 284 -148 157
-315 325 -370 374 -302 272 -649 442 -1035 509 -143 24 -417 34 -545 20z m356
-390 c288 -30 530 -117 770 -279 136 -91 226 -174 509 -471 413 -433 479 -498
526 -516 56 -21 120 -15 167 17 19 14 198 195 396 404 376 394 471 484 612
577 179 119 409 212 619 250 165 30 422 30 581 0 435 -81 817 -329 1097 -713
144 -199 255 -470 304 -749 17 -101 17 -451 -1 -550 -55 -307 -150 -557 -330
-865 -477 -816 -1317 -1707 -2509 -2659 -261 -208 -844 -653 -867 -662 -23 -9
-714 520 -1150 881 -777 644 -1429 1302 -1850 1866 -557 745 -753 1227 -732
1803 15 427 184 818 496 1149 351 371 866 567 1362 517z"/>
</g>
</svg>
